<svg xmlns="http://www.w3.org/2000/svg" width="320" height="152" viewBox="0 0 320 152">
<defs>
<linearGradient id="sn1" x1="0" y1="0" x2="0" y2="1"><stop offset="0" stop-color="#E9F2F9"/><stop offset="0.55" stop-color="#D7E4EE"/><stop offset="1" stop-color="#BACDDC"/></linearGradient>
<linearGradient id="g1" x1="0" y1="0" x2="0.25" y2="1"><stop offset="0" stop-color="#79828D"/><stop offset="0.5" stop-color="#5B646F"/><stop offset="1" stop-color="#3E4650"/></linearGradient>
<clipPath id="rock1"><path d="M 286.5,106.3 Q 281.8,118.7 267.1,130.7 Q 252.4,142.8 220.9,145.4 Q 189.3,148.1 159.8,148.4 Q 130.3,148.7 102.7,143.8 Q 75.1,138.8 62.7,127.5 Q 50.4,116.2 38.5,105.1 Q 26.6,94.0 31.3,81.4 Q 36.0,68.9 53.2,57.8 Q 70.5,46.8 102.1,46.1 Q 133.6,45.4 160.8,43.8 Q 188.0,42.3 210.9,48.7 Q 233.8,55.1 261.8,61.4 Q 289.8,67.7 290.6,80.8 Q 291.3,94.0 286.5,106.3 Z"/></clipPath>
</defs>
<rect x="-1" y="-1" width="322" height="154" fill="url(#sn1)"/>
<ellipse cx="163" cy="139" rx="104" ry="11" fill="#5E7285" opacity="0.16"/>
<path d="M 52,140 C 88,128 126,124 160,124 C 196,124 234,129 272,140 C 226,147 98,147 52,140 Z" fill="#E8F1F8" opacity="0.88"/>
<path d="M 286.5,106.3 Q 281.8,118.7 267.1,130.7 Q 252.4,142.8 220.9,145.4 Q 189.3,148.1 159.8,148.4 Q 130.3,148.7 102.7,143.8 Q 75.1,138.8 62.7,127.5 Q 50.4,116.2 38.5,105.1 Q 26.6,94.0 31.3,81.4 Q 36.0,68.9 53.2,57.8 Q 70.5,46.8 102.1,46.1 Q 133.6,45.4 160.8,43.8 Q 188.0,42.3 210.9,48.7 Q 233.8,55.1 261.8,61.4 Q 289.8,67.7 290.6,80.8 Q 291.3,94.0 286.5,106.3 Z" fill="url(#g1)" stroke="#2C333B" stroke-width="2.4"/>
<g clip-path="url(#rock1)">
<circle cx="214" cy="54" r="2.8" fill="#9AA4AF" opacity="0.29"/>
<circle cx="203" cy="105" r="1.4" fill="#9AA4AF" opacity="0.10"/>
<circle cx="168" cy="55" r="1.4" fill="#9AA4AF" opacity="0.15"/>
<circle cx="28" cy="92" r="1.8" fill="#9AA4AF" opacity="0.27"/>
<circle cx="165" cy="108" r="1.9" fill="#9AA4AF" opacity="0.23"/>
<circle cx="148" cy="75" r="2.8" fill="#9AA4AF" opacity="0.30"/>
<circle cx="255" cy="114" r="1.6" fill="#9AA4AF" opacity="0.15"/>
<circle cx="101" cy="56" r="2.4" fill="#9AA4AF" opacity="0.18"/>
<circle cx="257" cy="85" r="2.7" fill="#9AA4AF" opacity="0.27"/>
<circle cx="20" cy="69" r="2.6" fill="#9AA4AF" opacity="0.19"/>
<circle cx="295" cy="86" r="1.2" fill="#9AA4AF" opacity="0.23"/>
<circle cx="238" cy="74" r="1.2" fill="#9AA4AF" opacity="0.17"/>
<circle cx="290" cy="118" r="1.3" fill="#9AA4AF" opacity="0.15"/>
<circle cx="48" cy="55" r="2.5" fill="#9AA4AF" opacity="0.14"/>
<circle cx="177" cy="90" r="1.4" fill="#9AA4AF" opacity="0.25"/>
<circle cx="57" cy="108" r="1.3" fill="#9AA4AF" opacity="0.18"/>
<circle cx="80" cy="74" r="2.8" fill="#9AA4AF" opacity="0.26"/>
<circle cx="105" cy="130" r="1.5" fill="#9AA4AF" opacity="0.18"/>
<circle cx="259" cy="108" r="1.3" fill="#9AA4AF" opacity="0.30"/>
<circle cx="80" cy="73" r="2.4" fill="#9AA4AF" opacity="0.17"/>
<circle cx="103" cy="57" r="1.3" fill="#9AA4AF" opacity="0.22"/>
<circle cx="88" cy="104" r="1.7" fill="#9AA4AF" opacity="0.19"/>
<circle cx="289" cy="94" r="2.1" fill="#9AA4AF" opacity="0.27"/>
<circle cx="71" cy="64" r="2.6" fill="#9AA4AF" opacity="0.26"/>
<circle cx="90" cy="67" r="2.4" fill="#9AA4AF" opacity="0.29"/>
<circle cx="75" cy="136" r="2.6" fill="#9AA4AF" opacity="0.22"/>
<path d="M 25,91 C 140,86 200,102 262,87" fill="none" stroke="#2E353D" stroke-width="1.5" opacity="0.28"/>
<path d="M 33,110 C 140,99 200,119 265,106" fill="none" stroke="#2E353D" stroke-width="1.5" opacity="0.28"/>
<path d="M 56,74 C 140,69 200,80 278,70" fill="none" stroke="#2E353D" stroke-width="1.5" opacity="0.28"/>
<path d="M 51,120 C 140,114 200,131 260,116" fill="none" stroke="#2E353D" stroke-width="1.5" opacity="0.28"/>
<path d="M -10,-10 L 330,-10 L 330,58 C 286,74 250,58 208,66 C 168,74 132,60 92,70 C 60,78 34,68 -10,76 Z" fill="#EFF6FB" opacity="0.95"/>
<path d="M -10,76 C 34,68 60,78 92,70 C 132,60 168,74 208,66 C 250,58 286,74 330,58" fill="none" stroke="#FFFFFF" stroke-width="2" opacity="0.8"/>
</g>
<g transform="translate(72.0,106) scale(1.000)"><path d="M4.3 -13.5Q4.3 -12.5 4.8 -11.7Q5.3 -11 6.1 -10.4Q6.9 -9.8 7.9 -9.2Q8.8 -8.6 9.7 -7.9Q10.6 -7.3 11.2 -6.4Q11.8 -5.5 11.8 -4.3Q11.8 -2.9 11.1 -1.9Q10.4 -0.9 9.2 -0.3Q7.9 0.3 6.3 0.3Q5.6 0.3 4.8 0.2Q4 0.1 3.4 -0.2Q2.7 -0.4 2.3 -0.7Q2.2 -0.8 2.1 -0.9Q2.1 -1 2 -1.2L1.9 -5.1Q1.8 -5.2 2 -5.2Q2.1 -5.3 2.2 -5.1Q2.5 -4.4 2.9 -3.5Q3.3 -2.6 3.9 -1.9Q4.5 -1.2 5.2 -0.7Q6 -0.3 6.9 -0.3Q7.6 -0.3 8.2 -0.5Q8.8 -0.7 9.2 -1.3Q9.6 -1.9 9.6 -2.9Q9.6 -4.1 9 -5Q8.4 -5.9 7.6 -6.5Q6.7 -7.2 5.8 -7.7Q4.9 -8.3 4.1 -9Q3.2 -9.6 2.7 -10.4Q2.2 -11.2 2.2 -12.4Q2.2 -13.8 2.9 -14.7Q3.7 -15.7 4.9 -16.1Q6.1 -16.5 7.4 -16.5Q8.3 -16.5 9.2 -16.4Q10 -16.2 10.7 -15.9Q10.9 -15.9 11 -15.7Q11 -15.6 11 -15.4L11.1 -11.9Q11.1 -11.8 11 -11.8Q10.9 -11.8 10.8 -11.9Q10.7 -12.2 10.4 -12.9Q10.2 -13.6 9.7 -14.3Q9.2 -15 8.5 -15.5Q7.8 -16 6.8 -16Q6 -16 5.5 -15.7Q4.9 -15.4 4.6 -14.8Q4.3 -14.3 4.3 -13.5Z M26.2 0H14.9Q14.8 0 14.8 -0.2Q14.8 -0.3 14.9 -0.3Q15.7 -0.3 16.1 -0.4Q16.6 -0.6 16.7 -1Q16.9 -1.4 16.9 -2.1V-14.1Q16.9 -14.9 16.7 -15.3Q16.6 -15.7 16.1 -15.8Q15.7 -15.9 14.9 -15.9Q14.8 -15.9 14.8 -16.1Q14.8 -16.2 14.9 -16.2H25.7Q25.9 -16.2 25.9 -16L26 -12.6Q26 -12.6 25.9 -12.6Q25.7 -12.6 25.7 -12.6Q25.4 -14.1 24.5 -14.8Q23.6 -15.6 22.1 -15.6H21Q20.4 -15.6 20 -15.4Q19.6 -15.3 19.5 -15Q19.3 -14.6 19.3 -14.1V-2.2Q19.3 -1.7 19.5 -1.3Q19.6 -1 19.9 -0.8Q20.2 -0.7 20.8 -0.7H22.1Q23.8 -0.7 24.9 -1.5Q26 -2.4 26.5 -4Q26.5 -4.1 26.7 -4.1Q26.8 -4.1 26.8 -4Q26.7 -3.3 26.6 -2.3Q26.5 -1.2 26.5 -0.4Q26.5 0 26.2 0ZM24.7 -5.9Q24.7 -7 24 -7.5Q23.2 -8.1 21.8 -8.1H18.1V-8.8H21.8Q23.3 -8.8 24 -9.3Q24.7 -9.8 24.7 -10.7Q24.7 -10.8 24.8 -10.8Q25 -10.8 25 -10.7Q25 -9.9 24.9 -9.4Q24.9 -8.9 24.9 -8.4Q24.9 -7.8 25 -7.2Q25 -6.6 25 -5.9Q25 -5.8 24.9 -5.8Q24.7 -5.8 24.7 -5.9Z M32.9 -13.5Q32.9 -12.5 33.4 -11.7Q33.9 -11 34.7 -10.4Q35.5 -9.8 36.5 -9.2Q37.4 -8.6 38.3 -7.9Q39.2 -7.3 39.8 -6.4Q40.4 -5.5 40.4 -4.3Q40.4 -2.9 39.7 -1.9Q39 -0.9 37.8 -0.3Q36.5 0.3 34.9 0.3Q34.2 0.3 33.4 0.2Q32.6 0.1 32 -0.2Q31.3 -0.4 30.9 -0.7Q30.8 -0.8 30.7 -0.9Q30.7 -1 30.6 -1.2L30.5 -5.1Q30.4 -5.2 30.6 -5.2Q30.7 -5.3 30.8 -5.1Q31.1 -4.4 31.5 -3.5Q31.9 -2.6 32.5 -1.9Q33.1 -1.2 33.8 -0.7Q34.6 -0.3 35.5 -0.3Q36.2 -0.3 36.8 -0.5Q37.4 -0.7 37.8 -1.3Q38.2 -1.9 38.2 -2.9Q38.2 -4.1 37.6 -5Q37.1 -5.9 36.2 -6.5Q35.3 -7.2 34.4 -7.7Q33.5 -8.3 32.7 -9Q31.8 -9.6 31.3 -10.4Q30.8 -11.2 30.8 -12.4Q30.8 -13.8 31.5 -14.7Q32.3 -15.7 33.5 -16.1Q34.7 -16.5 36 -16.5Q36.9 -16.5 37.8 -16.4Q38.6 -16.2 39.3 -15.9Q39.5 -15.9 39.6 -15.7Q39.7 -15.6 39.7 -15.4L39.7 -11.9Q39.7 -11.8 39.6 -11.8Q39.5 -11.8 39.4 -11.9Q39.3 -12.2 39 -12.9Q38.8 -13.6 38.3 -14.3Q37.8 -15 37.1 -15.5Q36.4 -16 35.4 -16Q34.6 -16 34.1 -15.7Q33.5 -15.4 33.2 -14.8Q32.9 -14.3 32.9 -13.5Z M54.7 -2.1Q54.7 -1.4 54.9 -1Q55 -0.6 55.4 -0.4Q55.8 -0.3 56.7 -0.3Q56.8 -0.3 56.8 -0.2Q56.8 0 56.7 0Q56 0 55.2 -0Q54.4 -0.1 53.4 -0.1Q52.5 -0.1 51.7 -0Q50.9 0 50.2 0Q50.1 0 50.1 -0.2Q50.1 -0.3 50.2 -0.3Q51 -0.3 51.5 -0.4Q51.9 -0.6 52.1 -1Q52.2 -1.4 52.2 -2.1V-14.1Q52.2 -14.9 52.1 -15.3Q51.9 -15.7 51.5 -15.8Q51 -15.9 50.2 -15.9Q50.1 -15.9 50.1 -16.1Q50.1 -16.2 50.2 -16.2Q50.9 -16.2 51.7 -16.2Q52.5 -16.2 53.4 -16.2Q54.4 -16.2 55.2 -16.2Q56.1 -16.2 56.7 -16.2Q56.8 -16.2 56.8 -16.1Q56.8 -15.9 56.7 -15.9Q55.9 -15.9 55.4 -15.8Q55 -15.6 54.9 -15.2Q54.7 -14.8 54.7 -14.1Z M66.5 0Q66.5 0 66.5 -0.2Q66.5 -0.3 66.5 -0.3Q67.4 -0.3 67.7 -0.7Q68 -1 68 -2.1V-6Q68 -7.5 67.5 -8.2Q66.9 -8.8 65.8 -8.8Q65 -8.8 64.1 -8.4Q63.2 -7.9 62.6 -7.1L62.5 -7.4Q63.5 -8.8 64.7 -9.6Q65.8 -10.3 67.1 -10.3Q68.5 -10.3 69.3 -9.5Q70.1 -8.6 70.1 -7.1V-2.1Q70.1 -1 70.4 -0.7Q70.7 -0.3 71.6 -0.3Q71.7 -0.3 71.7 -0.2Q71.7 0 71.6 0Q71.1 0 70.4 -0Q69.8 -0.1 69.1 -0.1Q68.4 -0.1 67.7 -0Q67 0 66.5 0ZM59.5 0Q59.5 0 59.5 -0.2Q59.5 -0.3 59.5 -0.3Q60.4 -0.3 60.7 -0.7Q61 -1 61 -2.1V-7.1Q61 -7.9 60.8 -8.3Q60.6 -8.7 60.2 -8.7Q59.9 -8.7 59.6 -8.6Q59.3 -8.5 58.9 -8.3Q58.8 -8.3 58.7 -8.4Q58.6 -8.6 58.7 -8.6L62.1 -10.2Q62.3 -10.3 62.3 -10.3Q62.6 -10.3 62.8 -9.7Q63.1 -9.1 63.1 -8V-2.1Q63.1 -1 63.4 -0.7Q63.7 -0.3 64.6 -0.3Q64.7 -0.3 64.7 -0.2Q64.7 0 64.6 0Q64.1 0 63.4 -0Q62.8 -0.1 62.1 -0.1Q61.4 -0.1 60.7 -0Q60 0 59.5 0Z M77.5 0.3Q76.9 0.3 76.3 0.1Q75.6 -0.1 75.2 -0.6Q74.8 -1.1 74.8 -2V-7.9Q74.8 -8.4 74.7 -8.8Q74.6 -9.1 74.3 -9.2Q74 -9.3 73.5 -9.3Q73.4 -9.3 73.4 -9.5Q73.4 -9.7 73.5 -9.7Q74.7 -9.8 75.5 -10.3Q76.3 -10.8 76.6 -11.8Q76.6 -11.9 76.8 -11.9Q77 -11.9 77 -11.8V-2.9Q77 -1.8 77.5 -1.3Q78 -0.9 78.9 -0.9Q79.5 -0.9 80.1 -1.1Q80.6 -1.4 80.9 -1.6Q81 -1.7 81.1 -1.6Q81.2 -1.5 81.1 -1.4Q80.2 -0.5 79.3 -0.1Q78.5 0.3 77.5 0.3ZM80.3 -8.7Q79.3 -9 78.3 -9.1Q77.3 -9.2 76.2 -9.2V-9.8Q77.3 -9.8 78.3 -9.9Q79.3 -9.9 80.4 -10Q80.5 -10 80.5 -9.9Q80.6 -9.7 80.6 -9.4Q80.6 -9.2 80.5 -8.9Q80.4 -8.7 80.3 -8.7Z M88 0.3Q86.4 0.3 85.2 -0.4Q84.1 -1.1 83.5 -2.2Q82.9 -3.4 82.9 -4.7Q82.9 -6.3 83.7 -7.5Q84.4 -8.8 85.7 -9.5Q87 -10.3 88.6 -10.3Q90.2 -10.3 91 -9.5Q91.9 -8.8 91.9 -7.3Q91.9 -6.9 91.8 -6.7Q91.8 -6.5 91.6 -6.5H89.5Q89.6 -8 89.1 -8.9Q88.7 -9.8 87.7 -9.8Q86.5 -9.8 85.9 -8.7Q85.2 -7.6 85.2 -5.8Q85.2 -4.3 85.7 -3.2Q86.2 -2.1 87.1 -1.5Q88 -0.8 89.3 -0.8Q90.1 -0.8 90.6 -1.1Q91.2 -1.3 91.8 -1.6Q91.9 -1.7 92 -1.6Q92.1 -1.5 92 -1.4Q91.1 -0.5 90.1 -0.1Q89.1 0.3 88 0.3ZM84.5 -6.5 84.4 -6.9 90.2 -7V-6.5Z M94.4 0Q94.3 0 94.3 -0.2Q94.3 -0.3 94.4 -0.3Q95.2 -0.3 95.5 -0.7Q95.9 -1 95.9 -2.1V-15.4Q95.9 -16.3 95.7 -16.7Q95.5 -17.1 95.1 -17.1Q94.7 -17.1 94 -16.8Q94 -16.8 93.9 -16.9Q93.8 -17.1 93.8 -17.1L97.5 -18.8Q97.6 -18.8 97.6 -18.8Q97.7 -18.8 97.9 -18.7Q98 -18.6 98 -18.6V-2.1Q98 -1 98.3 -0.7Q98.6 -0.3 99.5 -0.3Q99.5 -0.3 99.5 -0.2Q99.5 0 99.5 0Q99 0 98.3 -0Q97.6 -0.1 96.9 -0.1Q96.2 -0.1 95.5 -0Q94.9 0 94.4 0Z M101.9 0Q101.8 0 101.8 -0.2Q101.8 -0.3 101.9 -0.3Q102.7 -0.3 103 -0.7Q103.3 -1 103.3 -2.1V-15.4Q103.3 -16.3 103.2 -16.7Q103 -17.1 102.6 -17.1Q102.2 -17.1 101.5 -16.8Q101.4 -16.8 101.4 -16.9Q101.3 -17.1 101.3 -17.1L105 -18.8Q105.1 -18.8 105.1 -18.8Q105.2 -18.8 105.3 -18.7Q105.5 -18.6 105.5 -18.6V-2.1Q105.5 -1 105.8 -0.7Q106.1 -0.3 107 -0.3Q107 -0.3 107 -0.2Q107 0 107 0Q106.5 0 105.8 -0Q105.1 -0.1 104.4 -0.1Q103.7 -0.1 103 -0Q102.4 0 101.9 0Z M109.5 0Q109.5 0 109.5 -0.2Q109.5 -0.3 109.5 -0.3Q110.4 -0.3 110.7 -0.7Q111 -1 111 -2.1V-6.8Q111 -7.7 110.8 -8.1Q110.6 -8.5 110.2 -8.5Q110 -8.5 109.7 -8.4Q109.5 -8.4 109.2 -8.2Q109.1 -8.2 109 -8.3Q108.9 -8.5 109 -8.5L112.8 -10.3Q112.8 -10.3 112.8 -10.3Q112.9 -10.3 113.1 -10.2Q113.2 -10.1 113.2 -10Q113.2 -9.7 113.1 -8.9Q113.1 -8.2 113.1 -6.9V-2.1Q113.1 -1 113.4 -0.7Q113.7 -0.3 114.6 -0.3Q114.7 -0.3 114.7 -0.2Q114.7 0 114.6 0Q114.1 0 113.4 -0Q112.8 -0.1 112.1 -0.1Q111.4 -0.1 110.7 -0Q110 0 109.5 0ZM111.9 -13Q111.2 -13 110.9 -13.4Q110.5 -13.8 110.5 -14.4Q110.5 -15.1 110.9 -15.4Q111.2 -15.8 111.9 -15.8Q112.6 -15.8 112.9 -15.4Q113.3 -15.1 113.3 -14.4Q113.3 -13 111.9 -13Z M120.6 7.3Q118.8 7.3 117.7 6.5Q116.6 5.7 116.6 4.4Q116.6 3.4 117.4 2.4Q118.2 1.4 120 0.3L120.3 0.6Q119.8 0.9 119.5 1.2Q119.1 1.6 118.9 2Q118.7 2.5 118.7 3.2Q118.7 4.3 119.1 5Q119.6 5.7 120.3 6.1Q121.1 6.5 122 6.5Q123.5 6.5 124.4 5.6Q125.3 4.8 125.3 3.3Q125.3 2.1 124.8 1.6Q124.3 1.1 123.4 1Q122.5 0.9 121.3 0.9Q120.3 0.9 119.4 0.8Q118.5 0.7 117.9 0.2Q117.3 -0.2 117.3 -1.1Q117.3 -2 117.9 -2.8Q118.6 -3.6 119.8 -4.3L120.1 -4.1Q119.5 -3.7 119.3 -3.3Q119 -2.9 119 -2.4Q119 -1.7 119.4 -1.4Q119.8 -1.1 120.5 -1Q121.3 -0.9 122.4 -0.9Q123.2 -0.9 124.1 -0.9Q124.9 -0.8 125.6 -0.6Q126.3 -0.3 126.7 0.3Q127.2 0.8 127.2 1.8Q127.2 2.9 126.6 3.9Q126.1 4.9 125.2 5.7Q124.3 6.4 123.1 6.9Q121.9 7.3 120.6 7.3ZM121.2 -3.5Q119.9 -3.5 119 -4Q118.1 -4.5 117.6 -5.3Q117.2 -6.1 117.2 -6.9Q117.2 -8 117.8 -8.7Q118.4 -9.5 119.4 -9.8Q120.5 -10.2 121.5 -10.2Q122.8 -10.2 123.7 -9.8Q124.6 -9.3 125.1 -8.6Q125.6 -7.8 125.6 -6.9Q125.6 -5.9 125 -5.1Q124.3 -4.3 123.3 -3.9Q122.3 -3.5 121.2 -3.5ZM121.8 -3.9Q122.4 -3.9 122.9 -4.4Q123.3 -5 123.3 -6.3Q123.3 -7.4 123 -8.2Q122.6 -9 122 -9.4Q121.4 -9.8 120.8 -9.8Q120.1 -9.8 119.7 -9.2Q119.4 -8.7 119.4 -7.6Q119.4 -6.5 119.7 -5.7Q120.1 -4.8 120.6 -4.4Q121.2 -3.9 121.8 -3.9ZM123.8 -8.2 123.8 -9Q124.6 -9.6 125.4 -9.9Q126.2 -10.3 127.1 -10.3Q127.2 -10.3 127.3 -10.1Q127.3 -9.9 127.3 -9.6Q127.3 -9.3 127.2 -8.9Q127.1 -8.5 127 -8.5Q126.6 -8.7 126.2 -8.8Q125.7 -8.9 125.2 -8.9Q124.8 -8.9 124.5 -8.9Q124.2 -8.9 123.9 -8.8Z M134.1 0.3Q132.5 0.3 131.3 -0.4Q130.2 -1.1 129.6 -2.2Q129 -3.4 129 -4.7Q129 -6.3 129.8 -7.5Q130.5 -8.8 131.8 -9.5Q133.1 -10.3 134.8 -10.3Q136.3 -10.3 137.2 -9.5Q138 -8.8 138 -7.3Q138 -6.9 138 -6.7Q137.9 -6.5 137.7 -6.5H135.6Q135.7 -8 135.3 -8.9Q134.8 -9.8 133.8 -9.8Q132.7 -9.8 132 -8.7Q131.3 -7.6 131.3 -5.8Q131.3 -4.3 131.8 -3.2Q132.3 -2.1 133.2 -1.5Q134.1 -0.8 135.4 -0.8Q136.2 -0.8 136.8 -1.1Q137.3 -1.3 138 -1.6Q138 -1.7 138.1 -1.6Q138.2 -1.5 138.1 -1.4Q137.2 -0.5 136.2 -0.1Q135.2 0.3 134.1 0.3ZM130.6 -6.5 130.6 -6.9 136.3 -7V-6.5Z M147.6 0Q147.5 0 147.5 -0.2Q147.5 -0.3 147.6 -0.3Q148.5 -0.3 148.8 -0.7Q149.1 -1 149.1 -2.1V-6Q149.1 -7.5 148.5 -8.2Q148 -8.8 146.8 -8.8Q146 -8.8 145.1 -8.4Q144.3 -7.9 143.7 -7.1L143.6 -7.4Q144.6 -8.8 145.7 -9.6Q146.8 -10.3 148.1 -10.3Q149.6 -10.3 150.4 -9.5Q151.2 -8.6 151.2 -7.1V-2.1Q151.2 -1 151.5 -0.7Q151.8 -0.3 152.6 -0.3Q152.7 -0.3 152.7 -0.2Q152.7 0 152.6 0Q152.2 0 151.5 -0Q150.9 -0.1 150.1 -0.1Q149.4 -0.1 148.8 -0Q148.1 0 147.6 0ZM140.6 0Q140.5 0 140.5 -0.2Q140.5 -0.3 140.6 -0.3Q141.5 -0.3 141.8 -0.7Q142.1 -1 142.1 -2.1V-7.1Q142.1 -7.9 141.9 -8.3Q141.7 -8.7 141.2 -8.7Q141 -8.7 140.7 -8.6Q140.3 -8.5 139.9 -8.3Q139.8 -8.3 139.8 -8.4Q139.7 -8.6 139.8 -8.6L143.2 -10.2Q143.3 -10.3 143.4 -10.3Q143.6 -10.3 143.9 -9.7Q144.2 -9.1 144.2 -8V-2.1Q144.2 -1 144.5 -0.7Q144.8 -0.3 145.7 -0.3Q145.7 -0.3 145.7 -0.2Q145.7 0 145.7 0Q145.2 0 144.5 -0Q143.9 -0.1 143.1 -0.1Q142.4 -0.1 141.8 -0Q141.1 0 140.6 0Z M159.8 0.3Q158 0.3 156.9 -0.5Q155.7 -1.2 155.2 -2.4Q154.6 -3.6 154.6 -4.8Q154.6 -6.1 155.1 -7.2Q155.7 -8.2 156.5 -8.9Q157.4 -9.5 158.5 -9.9Q159.5 -10.3 160.6 -10.3Q161.3 -10.3 162.1 -10.1Q162.8 -9.9 163.3 -9.4Q163.7 -9 163.7 -8.4Q163.7 -8 163.4 -7.7Q163.1 -7.4 162.5 -7.4Q161.9 -7.4 161.6 -7.7Q161.3 -8 161.1 -8.5Q160.9 -9.1 160.6 -9.4Q160.3 -9.7 159.6 -9.7Q158.4 -9.7 157.7 -8.6Q157 -7.5 157 -5.7Q157 -4.3 157.4 -3.2Q157.8 -2.2 158.7 -1.5Q159.6 -0.8 161.1 -0.8Q161.9 -0.8 162.4 -1Q163 -1.2 163.6 -1.6Q163.7 -1.6 163.8 -1.5Q163.9 -1.4 163.8 -1.4Q162.9 -0.5 162 -0.1Q161 0.3 159.8 0.3Z M171.2 0.3Q169.6 0.3 168.4 -0.4Q167.3 -1.1 166.7 -2.2Q166.1 -3.4 166.1 -4.7Q166.1 -6.3 166.9 -7.5Q167.6 -8.8 168.9 -9.5Q170.2 -10.3 171.9 -10.3Q173.4 -10.3 174.3 -9.5Q175.1 -8.8 175.1 -7.3Q175.1 -6.9 175.1 -6.7Q175 -6.5 174.8 -6.5H172.7Q172.8 -8 172.3 -8.9Q171.9 -9.8 170.9 -9.8Q169.8 -9.8 169.1 -8.7Q168.4 -7.6 168.4 -5.8Q168.4 -4.3 168.9 -3.2Q169.4 -2.1 170.3 -1.5Q171.2 -0.8 172.5 -0.8Q173.3 -0.8 173.9 -1.1Q174.4 -1.3 175 -1.6Q175.1 -1.7 175.2 -1.6Q175.3 -1.5 175.2 -1.4Q174.3 -0.5 173.3 -0.1Q172.3 0.3 171.2 0.3ZM167.7 -6.5 167.7 -6.9 173.4 -7V-6.5Z" fill="#1E242A" opacity="0.75" transform="translate(0,1.7)"/><path d="M4.3 -13.5Q4.3 -12.5 4.8 -11.7Q5.3 -11 6.1 -10.4Q6.9 -9.8 7.9 -9.2Q8.8 -8.6 9.7 -7.9Q10.6 -7.3 11.2 -6.4Q11.8 -5.5 11.8 -4.3Q11.8 -2.9 11.1 -1.9Q10.4 -0.9 9.2 -0.3Q7.9 0.3 6.3 0.3Q5.6 0.3 4.8 0.2Q4 0.1 3.4 -0.2Q2.7 -0.4 2.3 -0.7Q2.2 -0.8 2.1 -0.9Q2.1 -1 2 -1.2L1.9 -5.1Q1.8 -5.2 2 -5.2Q2.1 -5.3 2.2 -5.1Q2.5 -4.4 2.9 -3.5Q3.3 -2.6 3.9 -1.9Q4.5 -1.2 5.2 -0.7Q6 -0.3 6.9 -0.3Q7.6 -0.3 8.2 -0.5Q8.8 -0.7 9.2 -1.3Q9.6 -1.9 9.6 -2.9Q9.6 -4.1 9 -5Q8.4 -5.9 7.6 -6.5Q6.7 -7.2 5.8 -7.7Q4.9 -8.3 4.1 -9Q3.2 -9.6 2.7 -10.4Q2.2 -11.2 2.2 -12.4Q2.2 -13.8 2.9 -14.7Q3.7 -15.7 4.9 -16.1Q6.1 -16.5 7.4 -16.5Q8.3 -16.5 9.2 -16.4Q10 -16.2 10.7 -15.9Q10.9 -15.9 11 -15.7Q11 -15.6 11 -15.4L11.1 -11.9Q11.1 -11.8 11 -11.8Q10.9 -11.8 10.8 -11.9Q10.7 -12.2 10.4 -12.9Q10.2 -13.6 9.7 -14.3Q9.2 -15 8.5 -15.5Q7.8 -16 6.8 -16Q6 -16 5.5 -15.7Q4.9 -15.4 4.6 -14.8Q4.3 -14.3 4.3 -13.5Z M26.2 0H14.9Q14.8 0 14.8 -0.2Q14.8 -0.3 14.9 -0.3Q15.7 -0.3 16.1 -0.4Q16.6 -0.6 16.7 -1Q16.9 -1.4 16.9 -2.1V-14.1Q16.9 -14.9 16.7 -15.3Q16.6 -15.7 16.1 -15.8Q15.7 -15.9 14.9 -15.9Q14.8 -15.9 14.8 -16.1Q14.8 -16.2 14.9 -16.2H25.7Q25.9 -16.2 25.9 -16L26 -12.6Q26 -12.6 25.9 -12.6Q25.7 -12.6 25.7 -12.6Q25.4 -14.1 24.5 -14.8Q23.6 -15.6 22.1 -15.6H21Q20.4 -15.6 20 -15.4Q19.6 -15.3 19.5 -15Q19.3 -14.6 19.3 -14.1V-2.2Q19.3 -1.7 19.5 -1.3Q19.6 -1 19.9 -0.8Q20.2 -0.7 20.8 -0.7H22.1Q23.8 -0.7 24.9 -1.5Q26 -2.4 26.5 -4Q26.5 -4.1 26.7 -4.1Q26.8 -4.1 26.8 -4Q26.7 -3.3 26.6 -2.3Q26.5 -1.2 26.5 -0.4Q26.5 0 26.2 0ZM24.7 -5.9Q24.7 -7 24 -7.5Q23.2 -8.1 21.8 -8.1H18.1V-8.8H21.8Q23.3 -8.8 24 -9.3Q24.7 -9.8 24.7 -10.7Q24.7 -10.8 24.8 -10.8Q25 -10.8 25 -10.7Q25 -9.9 24.9 -9.4Q24.9 -8.9 24.9 -8.4Q24.9 -7.8 25 -7.2Q25 -6.6 25 -5.9Q25 -5.8 24.9 -5.8Q24.7 -5.8 24.7 -5.9Z M32.9 -13.5Q32.9 -12.5 33.4 -11.7Q33.9 -11 34.7 -10.4Q35.5 -9.8 36.5 -9.2Q37.4 -8.6 38.3 -7.9Q39.2 -7.3 39.8 -6.4Q40.4 -5.5 40.4 -4.3Q40.4 -2.9 39.7 -1.9Q39 -0.9 37.8 -0.3Q36.5 0.3 34.9 0.3Q34.2 0.3 33.4 0.2Q32.6 0.1 32 -0.2Q31.3 -0.4 30.9 -0.7Q30.8 -0.8 30.7 -0.9Q30.7 -1 30.6 -1.2L30.5 -5.1Q30.4 -5.2 30.6 -5.2Q30.7 -5.3 30.8 -5.1Q31.1 -4.4 31.5 -3.5Q31.9 -2.6 32.5 -1.9Q33.1 -1.2 33.8 -0.7Q34.6 -0.3 35.5 -0.3Q36.2 -0.3 36.8 -0.5Q37.4 -0.7 37.8 -1.3Q38.2 -1.9 38.2 -2.9Q38.2 -4.1 37.6 -5Q37.1 -5.9 36.2 -6.5Q35.3 -7.2 34.4 -7.7Q33.5 -8.3 32.7 -9Q31.8 -9.6 31.3 -10.4Q30.8 -11.2 30.8 -12.4Q30.8 -13.8 31.5 -14.7Q32.3 -15.7 33.5 -16.1Q34.7 -16.5 36 -16.5Q36.9 -16.5 37.8 -16.4Q38.6 -16.2 39.3 -15.9Q39.5 -15.9 39.6 -15.7Q39.7 -15.6 39.7 -15.4L39.7 -11.9Q39.7 -11.8 39.6 -11.8Q39.5 -11.8 39.4 -11.9Q39.3 -12.2 39 -12.9Q38.8 -13.6 38.3 -14.3Q37.8 -15 37.1 -15.5Q36.4 -16 35.4 -16Q34.6 -16 34.1 -15.7Q33.5 -15.4 33.2 -14.8Q32.9 -14.3 32.9 -13.5Z M54.7 -2.1Q54.7 -1.4 54.9 -1Q55 -0.6 55.4 -0.4Q55.8 -0.3 56.7 -0.3Q56.8 -0.3 56.8 -0.2Q56.8 0 56.7 0Q56 0 55.2 -0Q54.4 -0.1 53.4 -0.1Q52.5 -0.1 51.7 -0Q50.9 0 50.2 0Q50.1 0 50.1 -0.2Q50.1 -0.3 50.2 -0.3Q51 -0.3 51.5 -0.4Q51.9 -0.6 52.1 -1Q52.2 -1.4 52.2 -2.1V-14.1Q52.2 -14.9 52.1 -15.3Q51.9 -15.7 51.5 -15.8Q51 -15.9 50.2 -15.9Q50.1 -15.9 50.1 -16.1Q50.1 -16.2 50.2 -16.2Q50.9 -16.2 51.7 -16.2Q52.5 -16.2 53.4 -16.2Q54.4 -16.2 55.2 -16.2Q56.1 -16.2 56.7 -16.2Q56.8 -16.2 56.8 -16.1Q56.8 -15.9 56.7 -15.9Q55.9 -15.9 55.4 -15.8Q55 -15.6 54.9 -15.2Q54.7 -14.8 54.7 -14.1Z M66.5 0Q66.5 0 66.5 -0.2Q66.5 -0.3 66.5 -0.3Q67.4 -0.3 67.7 -0.7Q68 -1 68 -2.1V-6Q68 -7.5 67.5 -8.2Q66.9 -8.8 65.8 -8.8Q65 -8.8 64.1 -8.4Q63.2 -7.9 62.6 -7.1L62.5 -7.4Q63.5 -8.8 64.7 -9.6Q65.8 -10.3 67.1 -10.3Q68.5 -10.3 69.3 -9.5Q70.1 -8.6 70.1 -7.1V-2.1Q70.1 -1 70.4 -0.7Q70.7 -0.3 71.6 -0.3Q71.7 -0.3 71.7 -0.2Q71.7 0 71.6 0Q71.1 0 70.4 -0Q69.8 -0.1 69.1 -0.1Q68.4 -0.1 67.7 -0Q67 0 66.5 0ZM59.5 0Q59.5 0 59.5 -0.2Q59.5 -0.3 59.5 -0.3Q60.4 -0.3 60.7 -0.7Q61 -1 61 -2.1V-7.1Q61 -7.9 60.8 -8.3Q60.6 -8.7 60.2 -8.7Q59.9 -8.7 59.6 -8.6Q59.3 -8.5 58.9 -8.3Q58.8 -8.3 58.7 -8.4Q58.6 -8.6 58.7 -8.6L62.1 -10.2Q62.3 -10.3 62.3 -10.3Q62.6 -10.3 62.8 -9.7Q63.1 -9.1 63.1 -8V-2.1Q63.1 -1 63.4 -0.7Q63.7 -0.3 64.6 -0.3Q64.7 -0.3 64.7 -0.2Q64.7 0 64.6 0Q64.1 0 63.4 -0Q62.8 -0.1 62.1 -0.1Q61.4 -0.1 60.7 -0Q60 0 59.5 0Z M77.5 0.3Q76.9 0.3 76.3 0.1Q75.6 -0.1 75.2 -0.6Q74.8 -1.1 74.8 -2V-7.9Q74.8 -8.4 74.7 -8.8Q74.6 -9.1 74.3 -9.2Q74 -9.3 73.5 -9.3Q73.4 -9.3 73.4 -9.5Q73.4 -9.7 73.5 -9.7Q74.7 -9.8 75.5 -10.3Q76.3 -10.8 76.6 -11.8Q76.6 -11.9 76.8 -11.9Q77 -11.9 77 -11.8V-2.9Q77 -1.8 77.5 -1.3Q78 -0.9 78.9 -0.9Q79.5 -0.9 80.1 -1.1Q80.6 -1.4 80.9 -1.6Q81 -1.7 81.1 -1.6Q81.2 -1.5 81.1 -1.4Q80.2 -0.5 79.3 -0.1Q78.5 0.3 77.5 0.3ZM80.3 -8.7Q79.3 -9 78.3 -9.1Q77.3 -9.2 76.2 -9.2V-9.8Q77.3 -9.8 78.3 -9.9Q79.3 -9.9 80.4 -10Q80.5 -10 80.5 -9.9Q80.6 -9.7 80.6 -9.4Q80.6 -9.2 80.5 -8.9Q80.4 -8.7 80.3 -8.7Z M88 0.3Q86.4 0.3 85.2 -0.4Q84.1 -1.1 83.5 -2.2Q82.9 -3.4 82.9 -4.7Q82.9 -6.3 83.7 -7.5Q84.4 -8.8 85.7 -9.5Q87 -10.3 88.6 -10.3Q90.2 -10.3 91 -9.5Q91.9 -8.8 91.9 -7.3Q91.9 -6.9 91.8 -6.7Q91.8 -6.5 91.6 -6.5H89.5Q89.6 -8 89.1 -8.9Q88.7 -9.8 87.7 -9.8Q86.5 -9.8 85.9 -8.7Q85.2 -7.6 85.2 -5.8Q85.2 -4.3 85.7 -3.2Q86.2 -2.1 87.1 -1.5Q88 -0.8 89.3 -0.8Q90.1 -0.8 90.6 -1.1Q91.2 -1.3 91.8 -1.6Q91.9 -1.7 92 -1.6Q92.1 -1.5 92 -1.4Q91.1 -0.5 90.1 -0.1Q89.1 0.3 88 0.3ZM84.5 -6.5 84.4 -6.9 90.2 -7V-6.5Z M94.4 0Q94.3 0 94.3 -0.2Q94.3 -0.3 94.4 -0.3Q95.2 -0.3 95.5 -0.7Q95.9 -1 95.9 -2.1V-15.4Q95.9 -16.3 95.7 -16.7Q95.5 -17.1 95.1 -17.1Q94.7 -17.1 94 -16.8Q94 -16.8 93.9 -16.9Q93.8 -17.1 93.8 -17.1L97.5 -18.8Q97.6 -18.8 97.6 -18.8Q97.7 -18.8 97.9 -18.7Q98 -18.6 98 -18.6V-2.1Q98 -1 98.3 -0.7Q98.6 -0.3 99.5 -0.3Q99.5 -0.3 99.5 -0.2Q99.5 0 99.5 0Q99 0 98.3 -0Q97.6 -0.1 96.9 -0.1Q96.2 -0.1 95.5 -0Q94.9 0 94.4 0Z M101.9 0Q101.8 0 101.8 -0.2Q101.8 -0.3 101.9 -0.3Q102.7 -0.3 103 -0.7Q103.3 -1 103.3 -2.1V-15.4Q103.3 -16.3 103.2 -16.7Q103 -17.1 102.6 -17.1Q102.2 -17.1 101.5 -16.8Q101.4 -16.8 101.4 -16.9Q101.3 -17.1 101.3 -17.1L105 -18.8Q105.1 -18.8 105.1 -18.8Q105.2 -18.8 105.3 -18.7Q105.5 -18.6 105.5 -18.6V-2.1Q105.5 -1 105.8 -0.7Q106.1 -0.3 107 -0.3Q107 -0.3 107 -0.2Q107 0 107 0Q106.5 0 105.8 -0Q105.1 -0.1 104.4 -0.1Q103.7 -0.1 103 -0Q102.4 0 101.9 0Z M109.5 0Q109.5 0 109.5 -0.2Q109.5 -0.3 109.5 -0.3Q110.4 -0.3 110.7 -0.7Q111 -1 111 -2.1V-6.8Q111 -7.7 110.8 -8.1Q110.6 -8.5 110.2 -8.5Q110 -8.5 109.7 -8.4Q109.5 -8.4 109.2 -8.2Q109.1 -8.2 109 -8.3Q108.9 -8.5 109 -8.5L112.8 -10.3Q112.8 -10.3 112.8 -10.3Q112.9 -10.3 113.1 -10.2Q113.2 -10.1 113.2 -10Q113.2 -9.7 113.1 -8.9Q113.1 -8.2 113.1 -6.9V-2.1Q113.1 -1 113.4 -0.7Q113.7 -0.3 114.6 -0.3Q114.7 -0.3 114.7 -0.2Q114.7 0 114.6 0Q114.1 0 113.4 -0Q112.8 -0.1 112.1 -0.1Q111.4 -0.1 110.7 -0Q110 0 109.5 0ZM111.9 -13Q111.2 -13 110.9 -13.4Q110.5 -13.8 110.5 -14.4Q110.5 -15.1 110.9 -15.4Q111.2 -15.8 111.9 -15.8Q112.6 -15.8 112.9 -15.4Q113.3 -15.1 113.3 -14.4Q113.3 -13 111.9 -13Z M120.6 7.3Q118.8 7.3 117.7 6.5Q116.6 5.7 116.6 4.4Q116.6 3.4 117.4 2.4Q118.2 1.4 120 0.3L120.3 0.6Q119.8 0.9 119.5 1.2Q119.1 1.6 118.9 2Q118.7 2.5 118.7 3.2Q118.7 4.3 119.1 5Q119.6 5.7 120.3 6.1Q121.1 6.5 122 6.5Q123.5 6.5 124.4 5.6Q125.3 4.8 125.3 3.3Q125.3 2.1 124.8 1.6Q124.3 1.1 123.4 1Q122.5 0.9 121.3 0.9Q120.3 0.9 119.4 0.8Q118.5 0.7 117.9 0.2Q117.3 -0.2 117.3 -1.1Q117.3 -2 117.9 -2.8Q118.6 -3.6 119.8 -4.3L120.1 -4.1Q119.5 -3.7 119.3 -3.3Q119 -2.9 119 -2.4Q119 -1.7 119.4 -1.4Q119.8 -1.1 120.5 -1Q121.3 -0.9 122.4 -0.9Q123.2 -0.9 124.1 -0.9Q124.9 -0.8 125.6 -0.6Q126.3 -0.3 126.7 0.3Q127.2 0.8 127.2 1.8Q127.2 2.9 126.6 3.9Q126.1 4.9 125.2 5.7Q124.3 6.4 123.1 6.9Q121.9 7.3 120.6 7.3ZM121.2 -3.5Q119.9 -3.5 119 -4Q118.1 -4.5 117.6 -5.3Q117.2 -6.1 117.2 -6.9Q117.2 -8 117.8 -8.7Q118.4 -9.5 119.4 -9.8Q120.5 -10.2 121.5 -10.2Q122.8 -10.2 123.7 -9.8Q124.6 -9.3 125.1 -8.6Q125.6 -7.8 125.6 -6.9Q125.6 -5.9 125 -5.1Q124.3 -4.3 123.3 -3.9Q122.3 -3.5 121.2 -3.5ZM121.8 -3.9Q122.4 -3.9 122.9 -4.4Q123.3 -5 123.3 -6.3Q123.3 -7.4 123 -8.2Q122.6 -9 122 -9.4Q121.4 -9.8 120.8 -9.8Q120.1 -9.8 119.7 -9.2Q119.4 -8.7 119.4 -7.6Q119.4 -6.5 119.7 -5.7Q120.1 -4.8 120.6 -4.4Q121.2 -3.9 121.8 -3.9ZM123.8 -8.2 123.8 -9Q124.6 -9.6 125.4 -9.9Q126.2 -10.3 127.1 -10.3Q127.2 -10.3 127.3 -10.1Q127.3 -9.9 127.3 -9.6Q127.3 -9.3 127.2 -8.9Q127.1 -8.5 127 -8.5Q126.6 -8.7 126.2 -8.8Q125.7 -8.9 125.2 -8.9Q124.8 -8.9 124.5 -8.9Q124.2 -8.9 123.9 -8.8Z M134.1 0.3Q132.5 0.3 131.3 -0.4Q130.2 -1.1 129.6 -2.2Q129 -3.4 129 -4.7Q129 -6.3 129.8 -7.5Q130.5 -8.8 131.8 -9.5Q133.1 -10.3 134.8 -10.3Q136.3 -10.3 137.2 -9.5Q138 -8.8 138 -7.3Q138 -6.9 138 -6.7Q137.9 -6.5 137.7 -6.5H135.6Q135.7 -8 135.3 -8.9Q134.8 -9.8 133.8 -9.8Q132.7 -9.8 132 -8.7Q131.3 -7.6 131.3 -5.8Q131.3 -4.3 131.8 -3.2Q132.3 -2.1 133.2 -1.5Q134.1 -0.8 135.4 -0.8Q136.2 -0.8 136.8 -1.1Q137.3 -1.3 138 -1.6Q138 -1.7 138.1 -1.6Q138.2 -1.5 138.1 -1.4Q137.2 -0.5 136.2 -0.1Q135.2 0.3 134.1 0.3ZM130.6 -6.5 130.6 -6.9 136.3 -7V-6.5Z M147.6 0Q147.5 0 147.5 -0.2Q147.5 -0.3 147.6 -0.3Q148.5 -0.3 148.8 -0.7Q149.1 -1 149.1 -2.1V-6Q149.1 -7.5 148.5 -8.2Q148 -8.8 146.8 -8.8Q146 -8.8 145.1 -8.4Q144.3 -7.9 143.7 -7.1L143.6 -7.4Q144.6 -8.8 145.7 -9.6Q146.8 -10.3 148.1 -10.3Q149.6 -10.3 150.4 -9.5Q151.2 -8.6 151.2 -7.1V-2.1Q151.2 -1 151.5 -0.7Q151.8 -0.3 152.6 -0.3Q152.7 -0.3 152.7 -0.2Q152.7 0 152.6 0Q152.2 0 151.5 -0Q150.9 -0.1 150.1 -0.1Q149.4 -0.1 148.8 -0Q148.1 0 147.6 0ZM140.6 0Q140.5 0 140.5 -0.2Q140.5 -0.3 140.6 -0.3Q141.5 -0.3 141.8 -0.7Q142.1 -1 142.1 -2.1V-7.1Q142.1 -7.9 141.9 -8.3Q141.7 -8.7 141.2 -8.7Q141 -8.7 140.7 -8.6Q140.3 -8.5 139.9 -8.3Q139.8 -8.3 139.8 -8.4Q139.7 -8.6 139.8 -8.6L143.2 -10.2Q143.3 -10.3 143.4 -10.3Q143.6 -10.3 143.9 -9.7Q144.2 -9.1 144.2 -8V-2.1Q144.2 -1 144.5 -0.7Q144.8 -0.3 145.7 -0.3Q145.7 -0.3 145.7 -0.2Q145.7 0 145.7 0Q145.2 0 144.5 -0Q143.9 -0.1 143.1 -0.1Q142.4 -0.1 141.8 -0Q141.1 0 140.6 0Z M159.8 0.3Q158 0.3 156.9 -0.5Q155.7 -1.2 155.2 -2.4Q154.6 -3.6 154.6 -4.8Q154.6 -6.1 155.1 -7.2Q155.7 -8.2 156.5 -8.9Q157.4 -9.5 158.5 -9.9Q159.5 -10.3 160.6 -10.3Q161.3 -10.3 162.1 -10.1Q162.8 -9.9 163.3 -9.4Q163.7 -9 163.7 -8.4Q163.7 -8 163.4 -7.7Q163.1 -7.4 162.5 -7.4Q161.9 -7.4 161.6 -7.7Q161.3 -8 161.1 -8.5Q160.9 -9.1 160.6 -9.4Q160.3 -9.7 159.6 -9.7Q158.4 -9.7 157.7 -8.6Q157 -7.5 157 -5.7Q157 -4.3 157.4 -3.2Q157.8 -2.2 158.7 -1.5Q159.6 -0.8 161.1 -0.8Q161.9 -0.8 162.4 -1Q163 -1.2 163.6 -1.6Q163.7 -1.6 163.8 -1.5Q163.9 -1.4 163.8 -1.4Q162.9 -0.5 162 -0.1Q161 0.3 159.8 0.3Z M171.2 0.3Q169.6 0.3 168.4 -0.4Q167.3 -1.1 166.7 -2.2Q166.1 -3.4 166.1 -4.7Q166.1 -6.3 166.9 -7.5Q167.6 -8.8 168.9 -9.5Q170.2 -10.3 171.9 -10.3Q173.4 -10.3 174.3 -9.5Q175.1 -8.8 175.1 -7.3Q175.1 -6.9 175.1 -6.7Q175 -6.5 174.8 -6.5H172.7Q172.8 -8 172.3 -8.9Q171.9 -9.8 170.9 -9.8Q169.8 -9.8 169.1 -8.7Q168.4 -7.6 168.4 -5.8Q168.4 -4.3 168.9 -3.2Q169.4 -2.1 170.3 -1.5Q171.2 -0.8 172.5 -0.8Q173.3 -0.8 173.9 -1.1Q174.4 -1.3 175 -1.6Q175.1 -1.7 175.2 -1.6Q175.3 -1.5 175.2 -1.4Q174.3 -0.5 173.3 -0.1Q172.3 0.3 171.2 0.3ZM167.7 -6.5 167.7 -6.9 173.4 -7V-6.5Z" fill="#DCE6EF"/></g>
</svg>